<?xml version="1.0" encoding="utf-8"?>
<!-- Generator: Adobe Illustrator 18.1.1, SVG Export Plug-In . SVG Version: 6.00 Build 0)  -->
<svg version="1.1" xmlns="http://www.w3.org/2000/svg" xmlns:xlink="http://www.w3.org/1999/xlink" x="0px" y="0px"
	 viewBox="0 0 100 100" enable-background="new 0 0 100 100" xml:space="preserve">
<g id="Layer_1" display="none">
	<g display="inline">
		<polygon fill="#F6968C" points="82.2,35.6 58.1,35.6 58.1,0 42.1,0 42.1,35.6 17.9,35.6 50,72.6 		"/>
		<path fill="#F6968C" d="M86.1,62.5v23.6H13.9V62.5H0v30.6c0,3.9,3.1,6.9,6.9,6.9h86.1c3.9,0,6.9-3.1,6.9-6.9V62.5H86.1z"/>
	</g>
</g>
<g id="Layer_2">
	<g>
		<path fill="#0095DA" d="M79.5,37.8H40v34.4h39.5V37.8z M74.6,67.2H45V42.7h29.6V67.2z"/>
		<rect x="20.3" y="37.8" fill="#0095DA" width="12.8" height="34.4"/>
		<path fill="#0095DA" d="M5.6,11.7v76.5h88.8V11.7H5.6z M68.6,16.9h18.2v7.1H68.6V16.9z M12.9,16.9h49.3v7.1H12.9L12.9,16.9
			L12.9,16.9z M87,80.9H13V29h74L87,80.9L87,80.9z"/>
	</g>
</g>
</svg>
