<?xml version="1.0" encoding="utf-8"?>
<!-- Generator: Adobe Illustrator 18.1.1, SVG Export Plug-In . SVG Version: 6.00 Build 0)  -->
<svg version="1.1" xmlns="http://www.w3.org/2000/svg" xmlns:xlink="http://www.w3.org/1999/xlink" x="0px" y="0px"
	 viewBox="0 0 81.8 88.4" enable-background="new 0 0 81.8 88.4" xml:space="preserve">
<g id="Layer_1" display="none">
	<g display="inline">
		<path fill="#010101" d="M29.9,9.4L29.9,9.4L14.8,24v55H67V9.4L29.9,9.4L29.9,9.4z M61,73.2H20.8V29.8h15.1V15.2H61V73.2z"/>
		<rect x="26.1" y="35.9" fill="#010101" width="24.1" height="4.6"/>
		<rect x="26.1" y="46.3" fill="#010101" width="17.1" height="4.6"/>
		<rect x="26.1" y="56.7" fill="#010101" width="29.3" height="4.6"/>
	</g>
</g>
<g id="Layer_4">
	<g>
		<path fill="#010101" d="M60.8,39.7V27.8C60.8,17,52,8.2,41.2,8.2c-0.1,0-0.2,0-0.4,0c-0.1,0-0.2,0-0.4,0
			c-10.8,0-19.6,8.8-19.6,19.6v11.8h-6.9v40.6h54V39.7L60.8,39.7L60.8,39.7z M30.6,27.8c0-5.4,4.4-9.8,9.8-9.8c0.2,0,0.5,0,0.5,0
			s0.2,0,0.2,0c5.4,0,9.8,4.4,9.8,9.8v11.8H30.7L30.6,27.8L30.6,27.8z"/>
	</g>
</g>
<g id="Layer_2" display="none">
	<g display="inline">
		<path fill="#010101" d="M76.9,38.3c1.4-11.8-9.6-22.8-24.4-24.4c-9.1-1-17.6,1.7-23.1,6.6c1.2-0.1,2.5-0.2,3.7-0.2
			c7.4,0,14.5,2.2,20,6.1c5.8,4.2,9.4,10,10.2,16.5c0.7,5.8-1,11.6-4.7,16.6c7.6,5.7,14.6,4.2,13,3c-4.5-3.4-5.5-6.8-5.2-9.4
			C72.2,49.8,76.2,44.5,76.9,38.3z"/>
		<path fill="#010101" d="M58.8,43.4c-1.3-10.8-12.4-18.6-25.6-18.6c-1.3,0-2.5,0.1-3.8,0.2C14.4,26.7,3.5,37.6,4.9,49.5
			C5.6,55.7,9.6,61,15.5,64.3c0.3,2.6-0.7,6-5.2,9.4c-0.7,0.5,0.3,1.2,2.3,1.2c3.1,0,8.7-1.5,14-7c1.3,0.2,2.7,0.2,4,0.2
			c1.2,0,2.5-0.1,3.8-0.2C49.2,66.2,60.1,55.3,58.8,43.4z"/>
	</g>
</g>
<g id="Layer_3" display="none">
	<g display="inline">
		<path d="M9.4,8.2v72h63v-72H9.4z M19.2,75.1h-6.5v-6.5h6.5V75.1z M19.2,64.1h-6.5v-6.5h6.5V64.1z M19.2,53.1h-6.5v-6.5h6.5V53.1z
			 M19.2,42.1h-6.5v-6.5h6.5V42.1z M19.2,31.1h-6.5v-6.5h6.5V31.1z M19.2,20.1h-6.5v-6.5h6.5V20.1z M58.9,71.2h-36V48.6h36V71.2z
			 M58.9,39.9h-36V17.2h36V39.9z M69.1,75.1h-6.5v-6.5h6.5V75.1z M69.1,64.1h-6.5v-6.5h6.5V64.1z M69.1,53.1h-6.5v-6.5h6.5V53.1z
			 M69.1,42.1h-6.5v-6.5h6.5V42.1z M69.1,31.1h-6.5v-6.5h6.5V31.1z M69.1,20.1h-6.5v-6.5h6.5V20.1z"/>
	</g>
</g>
</svg>
